<?xml version="1.0" encoding="utf-8"?>
<!-- Generator: Adobe Illustrator 27.0.0, SVG Export Plug-In . SVG Version: 6.00 Build 0)  -->
<svg version="1.1" id="Layer_1" xmlns="http://www.w3.org/2000/svg" xmlns:xlink="http://www.w3.org/1999/xlink" x="0px" y="0px"
	 viewBox="0 0 512 512" style="enable-background:new 0 0 512 512;" xml:space="preserve">
<style type="text/css">
	.st0{fill:url(#XMLID_00000126306962311458372600000017315356914677848960_);}
	.st1{fill:url(#XMLID_00000037673094975924364470000016941421610740946341_);}
	.st2{fill:url(#XMLID_00000039092592309698674220000001106638032256106889_);}
	.st3{fill:url(#XMLID_00000172401581110602401130000007412022199558577324_);}
	.st4{fill:url(#XMLID_00000145041312325918179700000003725637356370997643_);}
	.st5{fill:url(#XMLID_00000062878754601633802100000011809085798659329445_);}
	.st6{fill:url(#XMLID_00000110464169400989825490000016070605961351474845_);}
	.st7{fill:url(#XMLID_00000182511579827158332960000008654145106559686285_);}
	.st8{fill:url(#XMLID_00000080164849932535568660000016551060361332292002_);}
	.st9{fill:url(#XMLID_00000031902545713362625370000003776189092300572851_);}
	.st10{fill:url(#XMLID_00000021837764717198660870000009780027147573387939_);}
	.st11{fill:url(#XMLID_00000180358811787537004220000008355722973913714819_);}
	.st12{fill:url(#XMLID_00000074402474164457394110000016858165178759560065_);}
	.st13{fill:url(#XMLID_00000005265746625744637590000002909809959277823413_);}
	.st14{fill:#FFFFFF;}
</style>
<g id="XMLID_1_">
	
		<linearGradient id="XMLID_00000179641497023942285990000008856511736349870521_" gradientUnits="userSpaceOnUse" x1="-342.6373" y1="573.9108" x2="-341.269" y2="573.9108" gradientTransform="matrix(0.9563 173.1814 173.1814 -0.9563 -98840.2266 60058.3516)">
		<stop  offset="0" style="stop-color:#7D7D7D"/>
		<stop  offset="1" style="stop-color:#7D7D7D"/>
	</linearGradient>
	<path id="XMLID_3_" style="fill:url(#XMLID_00000179641497023942285990000008856511736349870521_);" d="M194.22,296.95
		c-5.32,0-9.8,4.34-9.8,9.8c0,5.32,4.34,9.8,9.8,9.8h41.86c14.56,0,26.46-11.9,26.46-26.46s-11.9-26.46-26.46-26.46h-25.06
		c-1.96,0-3.64-0.84-4.9-2.1c-1.26-1.26-2.1-3.08-2.1-4.9c0-1.96,0.84-3.64,2.1-4.9c1.26-1.26,3.08-2.1,4.9-2.1h37.66
		c5.32,0,9.8-4.34,9.8-9.8c0-5.32-4.34-9.8-9.8-9.8h-37.66c-14.56,0-26.46,11.9-26.46,26.46c0,14.56,11.9,26.46,26.46,26.46h25.06
		c1.96,0,3.64,0.84,4.9,2.1c1.26,1.26,2.1,3.08,2.1,4.9c0,1.96-0.84,3.64-2.1,4.9c-1.26,1.26-3.08,2.1-4.9,2.1H194.22v2.8h41.86
		c5.32,0,9.8-4.34,9.8-9.8c0-5.32-4.34-9.8-9.8-9.8h-25.06c-6.58,0-12.46-2.66-16.8-7c-4.34-4.34-7-10.22-7-16.8
		c0-6.58,2.66-12.46,7-16.8c4.34-4.34,10.22-7,16.8-7h37.66c1.96,0,3.64,0.84,4.9,2.1c1.26,1.26,2.1,3.08,2.1,4.9
		c0,1.96-0.84,3.64-2.1,4.9c-1.26,1.26-3.08,2.1-4.9,2.1h-37.66c-5.32,0-9.8,4.34-9.8,9.8c0,5.32,4.34,9.8,9.8,9.8h25.06
		c6.58,0,12.46,2.66,16.8,7s7,10.22,7,16.8c0,6.58-2.66,12.46-7,16.8c-4.34,4.34-10.22,7-16.8,7h-41.86c-1.96,0-3.64-0.84-4.9-2.1
		c-1.26-1.26-2.1-3.08-2.1-4.9c0-1.96,0.84-3.64,2.1-4.9c1.26-1.26,3.08-2.1,4.9-2.1V296.95L194.22,296.95z"/>
	
		<linearGradient id="XMLID_00000114067451990600548580000003175951290921695647_" gradientUnits="userSpaceOnUse" x1="-342.6373" y1="574.031" x2="-341.269" y2="574.031" gradientTransform="matrix(0.9563 173.1814 173.1814 -0.9563 -98783.5625 60058.0391)">
		<stop  offset="0" style="stop-color:#7D7D7D"/>
		<stop  offset="1" style="stop-color:#7D7D7D"/>
	</linearGradient>
	<path id="XMLID_4_" style="fill:url(#XMLID_00000114067451990600548580000003175951290921695647_);" d="M284.1,282.95h31.36
		c5.32,0,9.8-4.34,9.8-9.8c0-5.32-4.34-9.8-9.8-9.8H285.5v-14h40.46c5.32,0,9.8-4.34,9.8-9.8c0-5.32-4.34-9.8-9.8-9.8H275.7
		c-5.32,0-9.8,4.34-9.8,9.8v67.06c0,5.32,4.34,9.8,9.8,9.8c5.32,0,9.8-4.34,9.8-9.8v-25.06h-2.8v25.06c0,1.96-0.84,3.64-2.1,4.9
		s-3.08,2.1-4.9,2.1c-1.96,0-3.64-0.84-4.9-2.1s-2.1-3.08-2.1-4.9v-67.06c0-1.96,0.84-3.64,2.1-4.9c1.26-1.26,3.08-2.1,4.9-2.1
		h50.26c1.96,0,3.64,0.84,4.9,2.1c1.26,1.26,2.1,3.08,2.1,4.9c0,1.96-0.84,3.64-2.1,4.9c-1.26,1.26-3.08,2.1-4.9,2.1H282.7V266
		h32.76c1.96,0,3.64,0.84,4.9,2.1c1.26,1.26,2.1,3.08,2.1,4.9c0,1.96-0.84,3.64-2.1,4.9s-3.08,2.1-4.9,2.1H284.1V282.95
		L284.1,282.95z"/>
	
		<linearGradient id="XMLID_00000109022366810740491620000013601178371185947031_" gradientUnits="userSpaceOnUse" x1="-342.6373" y1="574.1654" x2="-341.269" y2="574.1654" gradientTransform="matrix(0.9563 173.1814 173.1814 -0.9563 -98720.8125 60057.6914)">
		<stop  offset="0" style="stop-color:#7D7D7D"/>
		<stop  offset="1" style="stop-color:#7D7D7D"/>
	</linearGradient>
	<path id="XMLID_5_" style="fill:url(#XMLID_00000109022366810740491620000013601178371185947031_);" d="M386.72,287.15
		c2.38,0,5.04-0.84,6.86-2.94l-0.98-0.98l0.98,0.98l21.14-21.14v43.54c0,5.32,4.34,9.8,9.8,9.8c5.32,0,9.8-4.34,9.8-9.8v-67.06
		c0-5.32-4.34-9.8-9.8-9.8c-2.66,0-5.04,1.12-6.86,2.94l-30.8,30.8l-30.8-30.8c-1.82-1.82-4.2-2.94-6.86-2.94
		c-5.32,0-9.8,4.34-9.8,9.8v67.06c0,5.32,4.34,9.8,9.8,9.8c5.32,0,9.8-4.34,9.8-9.8v-43.54l21.14,21.14l0.98-0.98l-0.98,0.98
		C381.68,286.31,384.34,287.15,386.72,287.15v-2.8c-1.82,0-3.64-0.7-4.9-2.1l0,0l-25.76-25.76v50.12c0,1.96-0.84,3.64-2.1,4.9
		c-1.26,1.26-3.08,2.1-4.9,2.1c-1.96,0-3.64-0.84-4.9-2.1s-2.1-3.08-2.1-4.9v-67.06c0-1.96,0.84-3.64,2.1-4.9
		c1.26-1.26,3.08-2.1,4.9-2.1s3.64,0.7,4.9,2.1l32.76,32.76l32.76-32.76c1.4-1.26,3.08-2.1,4.9-2.1c1.96,0,3.64,0.84,4.9,2.1
		c1.26,1.26,2.1,3.08,2.1,4.9v67.06c0,1.96-0.84,3.64-2.1,4.9s-3.08,2.1-4.9,2.1c-1.96,0-3.64-0.84-4.9-2.1s-2.1-3.08-2.1-4.9
		v-50.12l-25.76,25.76l0,0c-1.26,1.4-3.08,2.1-4.9,2.1V287.15L386.72,287.15z"/>
	
		<linearGradient id="XMLID_00000042725701956191422330000013188943041932964492_" gradientUnits="userSpaceOnUse" x1="-342.6373" y1="574.3048" x2="-341.269" y2="574.3048" gradientTransform="matrix(0.9563 173.1814 173.1814 -0.9563 -98655.1797 60057.3281)">
		<stop  offset="0" style="stop-color:#7D7D7D"/>
		<stop  offset="1" style="stop-color:#7D7D7D"/>
	</linearGradient>
	<path id="XMLID_6_" style="fill:url(#XMLID_00000042725701956191422330000013188943041932964492_);" d="M441.89,306.75
		c0,5.32,4.34,9.8,9.8,9.8h50.26c5.32,0,9.8-4.34,9.8-9.8c0-5.32-4.34-9.8-9.8-9.8h-40.46v-57.26c0-5.32-4.34-9.8-9.8-9.8
		c-5.32,0-9.8,4.34-9.8,9.8V306.75h2.8v-67.06c0-1.96,0.84-3.64,2.1-4.9c1.26-1.26,3.08-2.1,4.9-2.1c1.96,0,3.64,0.84,4.9,2.1
		c1.26,1.26,2.1,3.08,2.1,4.9v59.92h43.26c1.96,0,3.64,0.84,4.9,2.1s2.1,3.08,2.1,4.9c0,1.96-0.84,3.64-2.1,4.9s-3.08,2.1-4.9,2.1
		h-50.26c-1.96,0-3.64-0.84-4.9-2.1s-2.1-3.08-2.1-4.9h-2.8V306.75z"/>
	
		<linearGradient id="XMLID_00000007423718159338514940000009175031420168753819_" gradientUnits="userSpaceOnUse" x1="-343.9574" y1="569.429" x2="-342.5891" y2="569.429" gradientTransform="matrix(0 -129.1091 -129.1091 0 73741.9375 -44000.6641)">
		<stop  offset="0" style="stop-color:#B4B4B4"/>
		<stop  offset="1" style="stop-color:#FFFFFF"/>
	</linearGradient>
	<path id="XMLID_7_" style="fill:url(#XMLID_00000007423718159338514940000009175031420168753819_);" d="M194.22,298.35
		c-4.62,0-8.4,3.78-8.4,8.4c0,4.62,3.78,8.4,8.4,8.4h41.86c13.86,0,25.06-11.2,25.06-25.06s-11.2-25.06-25.06-25.06h-25.06
		c-4.62,0-8.4-3.78-8.4-8.4c0-4.62,3.78-8.4,8.4-8.4h37.66c4.62,0,8.4-3.78,8.4-8.4s-3.78-8.4-8.4-8.4h-37.66
		c-13.86,0-25.06,11.2-25.06,25.06c0,13.86,11.2,25.06,25.06,25.06h25.06c4.62,0,8.4,3.78,8.4,8.4s-3.78,8.4-8.4,8.4H194.22"/>
	
		<linearGradient id="XMLID_00000040571337941813053160000001265028495470386067_" gradientUnits="userSpaceOnUse" x1="-343.9574" y1="569.2679" x2="-342.5891" y2="569.2679" gradientTransform="matrix(0 -129.1091 -129.1091 0 73798.5078 -44000.6641)">
		<stop  offset="0" style="stop-color:#B4B4B4"/>
		<stop  offset="1" style="stop-color:#FFFFFF"/>
	</linearGradient>
	<path id="XMLID_8_" style="fill:url(#XMLID_00000040571337941813053160000001265028495470386067_);" d="M284.1,281.55h31.36
		c4.62,0,8.4-3.78,8.4-8.4s-3.78-8.4-8.4-8.4H284.1v-16.8h41.86c4.62,0,8.4-3.78,8.4-8.4s-3.78-8.4-8.4-8.4H275.7
		c-4.62,0-8.4,3.78-8.4,8.4v67.06c0,4.62,3.78,8.4,8.4,8.4c4.62,0,8.4-3.78,8.4-8.4V281.55"/>
	
		<linearGradient id="XMLID_00000139974696773393628850000016327480013438539652_" gradientUnits="userSpaceOnUse" x1="-343.9574" y1="569.0887" x2="-342.5891" y2="569.0887" gradientTransform="matrix(0 -129.1091 -129.1091 0 73861.2578 -44000.6641)">
		<stop  offset="0" style="stop-color:#B4B4B4"/>
		<stop  offset="1" style="stop-color:#FFFFFF"/>
	</linearGradient>
	<path id="XMLID_9_" style="fill:url(#XMLID_00000139974696773393628850000016327480013438539652_);" d="M386.72,285.75
		c2.1,0,4.34-0.84,5.88-2.52l23.38-23.38v46.9c0,4.62,3.78,8.4,8.4,8.4s8.4-3.78,8.4-8.4v-67.06c0-4.62-3.78-8.4-8.4-8.4
		c-2.24,0-4.34,0.98-5.88,2.52l-31.78,31.78l-31.78-31.78c-1.54-1.54-3.64-2.52-5.88-2.52c-4.62,0-8.4,3.78-8.4,8.4v67.06
		c0,4.62,3.78,8.4,8.4,8.4c4.62,0,8.4-3.78,8.4-8.4v-46.9l23.38,23.38C382.38,285.05,384.62,285.75,386.72,285.75"/>
	
		<linearGradient id="XMLID_00000177447200386553368290000005417422631378366126_" gradientUnits="userSpaceOnUse" x1="-343.9574" y1="568.9003" x2="-342.5891" y2="568.9003" gradientTransform="matrix(0 -129.1091 -129.1091 0 73927.0234 -44000.6641)">
		<stop  offset="0" style="stop-color:#B4B4B4"/>
		<stop  offset="1" style="stop-color:#FFFFFF"/>
	</linearGradient>
	<path id="XMLID_10_" style="fill:url(#XMLID_00000177447200386553368290000005417422631378366126_);" d="M443.29,306.75
		c0,4.62,3.78,8.4,8.4,8.4h50.26c4.62,0,8.4-3.78,8.4-8.4c0-4.62-3.78-8.4-8.4-8.4h-41.86v-58.66c0-4.62-3.78-8.4-8.4-8.4
		s-8.4,3.78-8.4,8.4V306.75"/>
	
		<linearGradient id="XMLID_00000038388171466442607840000000391119405012198335_" gradientUnits="userSpaceOnUse" x1="-344.5465" y1="566.875" x2="-343.1783" y2="566.875" gradientTransform="matrix(0 -64.7141 -64.7141 0 36908.1484 -21977.8535)">
		<stop  offset="0" style="stop-color:#B4B4B4"/>
		<stop  offset="1" style="stop-color:#FFFFFF"/>
	</linearGradient>
	<path id="XMLID_11_" style="fill:url(#XMLID_00000038388171466442607840000000391119405012198335_);" d="M241.68,283.93
		c1.68,1.54,2.66,3.78,2.66,6.16c0,4.62-3.78,8.4-8.4,8.4h-41.86c-4.62,0-8.4,3.78-8.4,8.4c0,4.62,3.78,8.4,8.4,8.4h41.86
		c13.86,0,25.06-11.2,25.06-25.06c0-2.1-0.28-4.06-0.7-6.02c-1.54,0-2.94,0-4.34,0C251.06,283.93,246.44,283.93,241.68,283.93
		L241.68,283.93z"/>
	
		<linearGradient id="XMLID_00000156558274697255420750000015182213659183289483_" gradientUnits="userSpaceOnUse" x1="-344.5465" y1="566.6584" x2="-343.1783" y2="566.6584" gradientTransform="matrix(0 -64.7141 -64.7141 0 36946.3516 -21977.8535)">
		<stop  offset="0" style="stop-color:#B4B4B4"/>
		<stop  offset="1" style="stop-color:#FFFFFF"/>
	</linearGradient>
	<path id="XMLID_12_" style="fill:url(#XMLID_00000156558274697255420750000015182213659183289483_);" d="M283.96,283.65
		c-5.6,0.14-11.2,0.28-16.8,0.28v22.82c0,4.62,3.78,8.4,8.4,8.4c4.62,0,8.4-3.78,8.4-8.4V283.65L283.96,283.65z"/>
	
		<linearGradient id="XMLID_00000128473748627149883220000004640843600160226970_" gradientUnits="userSpaceOnUse" x1="-344.5465" y1="566.1935" x2="-343.1783" y2="566.1935" gradientTransform="matrix(0 -64.7141 -64.7141 0 37027.5 -21977.8535)">
		<stop  offset="0" style="stop-color:#B4B4B4"/>
		<stop  offset="1" style="stop-color:#FFFFFF"/>
	</linearGradient>
	<path id="XMLID_16_" style="fill:url(#XMLID_00000128473748627149883220000004640843600160226970_);" d="M432.79,268.24
		c-5.46,1.12-11.06,2.1-16.66,3.08v35.42c0,4.62,3.78,8.4,8.4,8.4s8.4-3.78,8.4-8.4L432.79,268.24L432.79,268.24z M402.41,273.56
		c-8.96,1.4-18.2,2.66-27.72,3.78l6.02,6.02c1.54,1.68,3.78,2.52,5.88,2.52s4.34-0.84,5.88-2.52L402.41,273.56L402.41,273.56z
		 M357.32,279.16c-5.46,0.56-11.06,0.98-16.66,1.4v26.18c0,4.62,3.78,8.4,8.4,8.4s8.4-3.78,8.4-8.4L357.32,279.16L357.32,279.16z"/>
	
		<linearGradient id="XMLID_00000059295049632997502240000002292478744897647248_" gradientUnits="userSpaceOnUse" x1="-344.5465" y1="565.8205" x2="-343.1783" y2="565.8205" gradientTransform="matrix(0 -64.7141 -64.7141 0 37093.2422 -21977.8535)">
		<stop  offset="0" style="stop-color:#B4B4B4"/>
		<stop  offset="1" style="stop-color:#FFFFFF"/>
	</linearGradient>
	<path id="XMLID_17_" style="fill:url(#XMLID_00000059295049632997502240000002292478744897647248_);" d="M459.81,262.22
		c-5.46,1.4-10.92,2.66-16.66,3.92v40.6c0,4.62,3.78,8.4,8.4,8.4h50.26c4.62,0,8.4-3.78,8.4-8.4c0-4.62-3.78-8.4-8.4-8.4h-41.86
		v-36.12H459.81z"/>
	
		<linearGradient id="XMLID_00000067954351111775203010000011416523932061323912_" gradientUnits="userSpaceOnUse" x1="-342.6857" y1="573.4901" x2="-341.3176" y2="573.4901" gradientTransform="matrix(0 196.3999 196.3999 0 -112553.3906 67479.3047)">
		<stop  offset="0" style="stop-color:#A9EE52"/>
		<stop  offset="1" style="stop-color:#53880E"/>
	</linearGradient>
	<path id="XMLID_18_" style="fill:url(#XMLID_00000067954351111775203010000011416523932061323912_);" d="M106.72,190.96l5.32,3.92
		l5.32,3.92l5.32,3.92l5.32,3.92l5.32,3.92l5.32,3.92c27.02,19.88,23.8,27.86,16.38,50.54l-2.1,6.3l-2.1,6.3l-2.1,6.3l-2.1,6.3
		l-2.1,6.3l-2.1,6.3c-10.5,31.78-19.04,31.22-42.98,31.22H59.95c-33.46-0.14-35.56-8.54-42.98-31.22l-2.1-6.3l-2.1-6.3l-2.1-6.3
		l-2.1-6.3l-2.1-6.3l-2.1-6.3c-10.22-31.92-2.94-36.54,16.38-50.54l5.32-3.92l5.32-3.92l5.32-3.92l5.32-3.92l5.32-3.92l5.32-3.92
		C80.81,171.5,87.39,176.96,106.72,190.96L106.72,190.96z"/>
	
		<linearGradient id="XMLID_00000082331387120934149270000001137627639686416288_" gradientUnits="userSpaceOnUse" x1="-342.5249" y1="574.246" x2="-341.1568" y2="574.246" gradientTransform="matrix(0 129.8999 129.8999 0 -74518.8672 44669.8203)">
		<stop  offset="0" style="stop-color:#A9EE52"/>
		<stop  offset="1" style="stop-color:#53880E"/>
	</linearGradient>
	<path id="XMLID_19_" style="fill:url(#XMLID_00000082331387120934149270000001137627639686416288_);" d="M0.87,245.98
		c0.56,5.04,1.96,11.06,4.34,18.76l1.96,6.3l2.1,6.3l1.96,6.3l2.1,6.3l1.96,6.3l2.1,6.3c7.42,22.82,9.52,31.08,42.98,31.22h39.48
		c23.94,0,32.48,0.56,42.98-31.22l1.96-6.3l2.1-6.3l1.96-6.3l1.54-4.76C89.49,272.44,37.27,260.96,0.87,245.98L0.87,245.98z"/>
	<path id="XMLID_20_" class="st14" d="M107.84,205.94l-5.6,21.28l1.4,1.12l3.64,2.66l3.64,2.66l3.64,2.66l3.64,2.66l3.92,2.8
		c3.22,2.24,4.2,3.36,4.62,3.64c-0.14,0.42-0.42,1.82-1.68,5.74l-1.4,4.34l-1.4,4.34l-1.4,4.34l-1.4,4.34l-1.4,4.34l-1.4,4.34
		l-1.4,4.34l-1.4,4.34l-1.4,4.34l-1.54,4.62c-1.12,3.78-1.82,5.04-2.1,5.46c-0.42,0-1.82,0.14-6.02,0.14h-45.5
		c-3.92,0.14-5.32-0.14-5.88-0.28c-0.14-0.28-0.7-1.26-1.96-5.74l-1.4-4.34l-1.4-4.34l-1.4-4.34l-1.4-4.34l-1.4-4.34l-1.4-4.34
		l-1.4-4.34l-1.4-4.34l-1.4-4.34l-1.54-4.62c-1.4-3.78-1.54-5.18-1.54-5.6c0.28-0.28,0.98-0.98,4.76-3.64l3.64-2.66l3.78-2.66
		l3.64-2.66l3.64-2.66l3.64-2.66l1.4-0.98l-5.6-21.28l-0.56,0.42l-3.64,2.66l-3.64,2.66l-3.64,2.66L37.41,217l-3.64,2.66l-3.64,2.66
		l-3.64,2.8c-4.34,3.22-9.1,5.88-11.9,12.46c-2.66,6.58-1.12,13.02,1.26,20.02l1.4,4.34l1.4,4.34l1.4,4.34l1.4,4.34l1.4,4.34
		l1.4,4.34l1.4,4.34l1.4,4.34l1.4,4.34l1.4,4.34c1.68,5.18,2.8,10.5,8.26,15.12c5.46,4.62,12.04,5.04,19.46,4.9h45.5
		c5.46,0,10.78,0.7,16.94-3.08c6.02-3.78,8.54-9.8,10.64-16.94l1.4-4.34l1.4-4.34l1.4-4.34l1.4-4.34l1.4-4.34l1.4-4.34l1.4-4.34
		l1.4-4.34l1.4-4.34l1.4-4.34c1.68-5.18,4.06-10.08,2.24-17.08c-1.68-6.86-6.72-11.2-12.88-15.4l-3.64-2.66l-3.78-2.66l-3.64-2.66
		l-3.64-2.66l-3.64-2.66l-3.64-2.66l-3.64-2.66L107.84,205.94L107.84,205.94z"/>
	<path id="XMLID_21_" class="st14" d="M79.27,190.82c-5.88,0.42-10.92,3.5-16.1,7.42l-0.14,0.14l14.14,54.32h6.16l14.14-54.32
		l-0.14-0.14c-4.34-3.22-8.4-6.86-15.54-7.42C80.95,190.82,80.11,190.82,79.27,190.82L79.27,190.82z"/>
</g>
</svg>
